<svg width="1440" height="608" viewBox="0 0 1440 608" fill="none" xmlns="http://www.w3.org/2000/svg">
<rect width="1440" height="611" fill="url(#paint0_linear_974_9656)"/>
<g filter="url(#filter0_f_974_9656)">
<path fill-rule="evenodd" clip-rule="evenodd" d="M817.616 -130.762C760.34 -132.239 704.757 -126.921 652.549 -112.586C589.008 -95.1405 515.771 -78.5823 487.221 -40.0485C457.909 -0.485199 474.811 47.0984 505.131 86.3825C533.283 122.857 593.248 143.352 647.046 167.027C700.865 190.71 751.139 222.141 817.616 223.895C885.206 225.678 950.501 204.656 999.341 176.32C1044.42 150.168 1069.4 113 1073.74 75.299C1077.51 42.6319 1038.85 15.8478 1021.42 -15.1535C1004.35 -45.532 1011.45 -82.3843 972.769 -104.327C932.583 -127.122 872.642 -129.343 817.616 -130.762Z" fill="url(#paint1_linear_974_9656)" fill-opacity="0.3"/>
</g>
<g filter="url(#filter1_df_974_9656)">
<path fill-rule="evenodd" clip-rule="evenodd" d="M1069.66 502.935C1123.92 480.568 1176.24 491.655 1232.36 481.753C1328.15 464.85 1450.6 393.599 1513.55 424.608C1572.44 453.622 1492.19 538.336 1469.41 598.531C1450.62 648.151 1431.76 695.623 1392.46 744.499C1345.14 803.35 1309.22 889.96 1219.94 908.8C1122.49 929.364 1109.61 835.054 1027.23 821.575C965.132 811.415 874.792 857.684 816.84 842.847C745.795 824.657 647.63 793.357 680.468 732.796C716.79 665.81 862.585 649.675 949.379 598.413C997.224 570.156 1016.77 524.739 1069.66 502.935Z" fill="url(#paint2_linear_974_9656)" shape-rendering="crispEdges"/>
</g>
<defs>
<filter id="filter0_f_974_9656" x="464" y="-139" width="618" height="371" filterUnits="userSpaceOnUse" color-interpolation-filters="sRGB">
<feFlood flood-opacity="0" result="BackgroundImageFix"/>
<feBlend mode="normal" in="SourceGraphic" in2="BackgroundImageFix" result="shape"/>
<feGaussianBlur stdDeviation="4" result="effect1_foregroundBlur_974_9656"/>
</filter>
<filter id="filter1_df_974_9656" x="631.941" y="368.884" width="940.78" height="574.836" filterUnits="userSpaceOnUse" color-interpolation-filters="sRGB">
<feFlood flood-opacity="0" result="BackgroundImageFix"/>
<feColorMatrix in="SourceAlpha" type="matrix" values="0 0 0 0 0 0 0 0 0 0 0 0 0 0 0 0 0 0 127 0" result="hardAlpha"/>
<feOffset dx="-2" dy="-8"/>
<feGaussianBlur stdDeviation="20"/>
<feComposite in2="hardAlpha" operator="out"/>
<feColorMatrix type="matrix" values="0 0 0 0 1 0 0 0 0 1 0 0 0 0 1 0 0 0 0.1 0"/>
<feBlend mode="normal" in2="BackgroundImageFix" result="effect1_dropShadow_974_9656"/>
<feBlend mode="normal" in="SourceGraphic" in2="effect1_dropShadow_974_9656" result="shape"/>
<feGaussianBlur stdDeviation="2" result="effect2_foregroundBlur_974_9656"/>
</filter>
<linearGradient id="paint0_linear_974_9656" x1="1440" y1="611" x2="6.73222e-06" y2="-1.58664e-05" gradientUnits="userSpaceOnUse">
<stop stop-color="#4797F5" stop-opacity="0.8"/>
<stop offset="1" stop-color="#4088F4"/>
</linearGradient>
<linearGradient id="paint1_linear_974_9656" x1="818.823" y1="76.4483" x2="534.869" y2="122.793" gradientUnits="userSpaceOnUse">
<stop stop-color="white" stop-opacity="0"/>
<stop offset="1" stop-color="white" stop-opacity="0.25"/>
</linearGradient>
<linearGradient id="paint2_linear_974_9656" x1="1066.44" y1="504.006" x2="1396.88" y2="656.992" gradientUnits="userSpaceOnUse">
<stop stop-color="white" stop-opacity="0.38"/>
<stop offset="1" stop-color="white" stop-opacity="0"/>
</linearGradient>
</defs>
</svg>
